<svg id="Groupe_2" data-name="Groupe 2" xmlns="http://www.w3.org/2000/svg" width="65.187" height="47.696" viewBox="0 0 65.187 47.696">
  <rect id="Rectangle_11" data-name="Rectangle 11" width="15.089" height="6.144" transform="translate(29.415 20.191)" fill="none"/>
  <circle id="Ellipse_1" data-name="Ellipse 1" cx="3.746" cy="3.746" r="3.746" transform="translate(41.934 38.232)" fill="none"/>
  <circle id="Ellipse_2" data-name="Ellipse 2" cx="3.746" cy="3.746" r="3.746" transform="translate(25.473 38.232)" fill="none"/>
  <path id="Tracé_2" data-name="Tracé 2" d="M153.977,94.2H105.4l4.957,22.075a2.481,2.481,0,0,0,2.432,1.948h34.64a2.494,2.494,0,0,0,2.352-1.683L156.328,97.5a2.478,2.478,0,0,0-2.352-3.3Zm-8.115,15.481a.98.98,0,0,1,0,1.96h-6.156v2.882a.98.98,0,0,1-1.96,0v-2.882H122.657v2.882a.98.98,0,1,1-1.96,0v-2.882h-5.176a.98.98,0,0,1,0-1.96H120.7v-6.144h-5.176a.98.98,0,0,1,0-1.96H120.7V97.889a.98.98,0,1,1,1.96,0v3.689h15.089V97.889a.98.98,0,0,1,1.96,0v3.689h6.156a.98.98,0,0,1,0,1.96h-6.156v6.144Z" transform="translate(-93.241 -83.346)" fill="none"/>
  <path id="Tracé_3" data-name="Tracé 3" d="M60.66,8.935H11.542c-.392-1.775-.738-3.378-.957-4.45A5.152,5.152,0,0,0,8.038.774C5.041-.875.741.762.556.831a.982.982,0,1,0,.7,1.833c1-.392,4-1.176,5.821-.173A3.227,3.227,0,0,1,8.66,4.866C9.513,9.1,12.314,21.177,12.349,21.3a.815.815,0,0,0,.127.288l2.651,11.8a4.463,4.463,0,0,0,4.346,3.481h7.2a5.706,5.706,0,1,0,4.934,0H43.139a5.706,5.706,0,1,0,4.934,0h6.04a4.444,4.444,0,0,0,4.208-3.009l6.548-19.043A4.448,4.448,0,0,0,60.66,8.935ZM32.891,42.019a3.746,3.746,0,1,1-3.746-3.746A3.754,3.754,0,0,1,32.891,42.019Zm16.473,0a3.746,3.746,0,1,1-3.746-3.746A3.754,3.754,0,0,1,49.363,42.019ZM63.012,14.192,56.464,33.235a2.494,2.494,0,0,1-2.352,1.683H19.473a2.47,2.47,0,0,1-2.432-1.948L12.084,10.895H60.66a2.487,2.487,0,0,1,2.352,3.3Z" transform="translate(0.075 -0.041)" fill="#0c0c0c"/>
  <path id="Tracé_4" data-name="Tracé 4" d="M216.02,124.328a.98.98,0,1,0,0-1.96h-6.156V118.68a.98.98,0,1,0-1.96,0v3.689H192.815V118.68a.98.98,0,1,0-1.96,0v3.689H185.68a.98.98,0,1,0,0,1.96h5.176v6.144H185.68a.98.98,0,1,0,0,1.96h5.176v2.882a.98.98,0,1,0,1.96,0v-2.882H207.9v2.882a.98.98,0,1,0,1.96,0v-2.882h6.156a.98.98,0,1,0,0-1.96h-6.156v-6.144Zm-8.115,6.144H192.815v-6.144H207.9Z" transform="translate(-163.4 -104.137)" fill="#0c0c0c"/>
</svg>
