<svg id="Groupe_211" data-name="Groupe 211" xmlns="http://www.w3.org/2000/svg" xmlns:xlink="http://www.w3.org/1999/xlink" width="159.298" height="159.227" viewBox="0 0 159.298 159.227">
  <defs>
    <linearGradient id="linear-gradient" y1="0.5" x2="1" y2="0.5" gradientUnits="objectBoundingBox">
      <stop offset="0" stop-color="#5b4ba2"/>
      <stop offset="1" stop-color="#667eea"/>
    </linearGradient>
    <linearGradient id="linear-gradient-2" y1="0.501" x2="0.999" y2="0.501" gradientUnits="objectBoundingBox">
      <stop offset="0" stop-color="#667eea"/>
      <stop offset="1" stop-color="#5b4ba2"/>
    </linearGradient>
    <linearGradient id="linear-gradient-3" x1="0" y1="0.5" x2="1" y2="0.5" xlink:href="#linear-gradient-2"/>
    <linearGradient id="linear-gradient-4" x1="-38.229" y1="28.224" x2="-36.855" y2="28.224" gradientUnits="objectBoundingBox">
      <stop offset="0" stop-color="#4facfe"/>
      <stop offset="1" stop-color="#00f2fe"/>
    </linearGradient>
    <linearGradient id="linear-gradient-5" y1="0.5" x2="1" y2="0.5" gradientUnits="objectBoundingBox">
      <stop offset="0.198" stop-color="#00f2fe" stop-opacity="0.502"/>
      <stop offset="0.311" stop-color="#17ddfe" stop-opacity="0.569"/>
      <stop offset="0.464" stop-color="#30c8fe" stop-opacity="0.667"/>
      <stop offset="0.624" stop-color="#41b8fe" stop-opacity="0.765"/>
      <stop offset="0.797" stop-color="#4caffe" stop-opacity="0.875"/>
      <stop offset="1" stop-color="#4facfe"/>
    </linearGradient>
    <linearGradient id="linear-gradient-6" x1="0" y1="0.5" x2="0.999" y2="0.5" xlink:href="#linear-gradient-4"/>
    <linearGradient id="linear-gradient-7" x1="0.001" y1="0.5" x2="1" y2="0.5" xlink:href="#linear-gradient"/>
    <linearGradient id="linear-gradient-8" y1="0.5" x2="0.998" y2="0.5" xlink:href="#linear-gradient"/>
    <linearGradient id="linear-gradient-9" x1="0.187" y1="-0.041" x2="1.134" y2="1.019" xlink:href="#linear-gradient-2"/>
  </defs>
  <g id="Groupe_126" data-name="Groupe 126">
    <path id="Tracé_91" data-name="Tracé 91" d="M79.613,159.155a79.545,79.545,0,1,1,72.877-47.51,7.123,7.123,0,1,1-13.042-5.733,65.416,65.416,0,1,0-18.918,24.651l-23-23A7.094,7.094,0,1,1,107.56,97.528l28.305,28.305a7.05,7.05,0,0,1,0,10.032A79.031,79.031,0,0,1,79.613,159.155Z" fill="url(#linear-gradient)"/>
  </g>
  <g id="Groupe_127" data-name="Groupe 127" transform="translate(40.057 39.986)">
    <path id="Tracé_92" data-name="Tracé 92" d="M95.456,134.912a39.556,39.556,0,1,1,39.556-39.556A39.635,39.635,0,0,1,95.456,134.912Zm0-64.852a25.3,25.3,0,1,0,25.3,25.3A25.338,25.338,0,0,0,95.456,70.06Z" transform="translate(-55.9 -55.8)" fill="url(#linear-gradient-2)"/>
  </g>
  <path id="Tracé_93" data-name="Tracé 93" d="M10,79.642a79.726,79.726,0,0,0,76.03,79.542,59.308,59.308,0,0,0,7.094-.645A79.292,79.292,0,0,1,44.9,133.171,65.38,65.38,0,0,1,82.447,14.289c1.218,0,2.365,0,3.583.072,1.218-.072,2.365-.072,3.583-.072H92.05a7.789,7.789,0,0,1,1.29.072,1.984,1.984,0,0,1,.645.072c.43,0,.86.072,1.218.072.215,0,.43.072.645.072.43.072.86.072,1.218.143.215,0,.43.072.573.072a7.9,7.9,0,0,0,1.29.143c.215,0,.358.072.573.072.43.072.932.143,1.362.215.143,0,.287.072.43.072a14.675,14.675,0,0,1,1.72.358l1.075.215c.215.072.43.072.645.143a8.663,8.663,0,0,1,1.29.358c.143,0,.215.072.358.072l1.5.43h.143a64.2,64.2,0,0,1,8.1,2.938,7.065,7.065,0,0,0,9.746-6.879A79.558,79.558,0,0,0,86.03.1,79.675,79.675,0,0,0,10,79.642Z" transform="translate(-2.834 -0.028)" fill="url(#linear-gradient-3)"/>
  <path id="Tracé_94" data-name="Tracé 94" d="M0,79.613a79.713,79.713,0,0,0,79.613,79.613c2.365,0,4.73-.143,7.094-.287A79.613,79.613,0,0,1,14.26,81.333v-2.58A65.424,65.424,0,0,1,79.613,14.26H82.05a7.788,7.788,0,0,1,1.29.072,1.984,1.984,0,0,1,.645.072c.43,0,.86.072,1.218.072.215,0,.43.072.645.072.43.072.86.072,1.218.143.215,0,.43.072.573.072a7.9,7.9,0,0,0,1.29.143c.215,0,.358.072.573.072.43.072.932.143,1.362.215.143,0,.287.072.43.072a14.676,14.676,0,0,1,1.72.358l1.075.215c.215.072.43.072.645.143a8.664,8.664,0,0,1,1.29.358c.143,0,.215.072.358.072l1.5.43h.143a64.2,64.2,0,0,1,8.1,2.938,7.036,7.036,0,0,0,9.172-3.726,7.148,7.148,0,0,0-3.655-9.387A80.674,80.674,0,0,0,79.613,0,79.667,79.667,0,0,0,0,79.613Z" fill="url(#linear-gradient-4)"/>
  <path id="Tracé_95" data-name="Tracé 95" d="M79.642,10A79.675,79.675,0,0,0,.1,86.03a59.308,59.308,0,0,0,.645,7.094,79.585,79.585,0,0,1,25.3-48.155,65.336,65.336,0,0,1,53.6-27.875h2.436a7.789,7.789,0,0,1,1.29.072,1.984,1.984,0,0,1,.645.072c.43,0,.86.072,1.218.072.215,0,.43.072.645.072.43.072.86.072,1.218.143.215,0,.43.072.573.072a7.9,7.9,0,0,0,1.29.143c.215,0,.358.072.573.072.43.072.932.143,1.362.215.143,0,.287.072.43.072a14.677,14.677,0,0,1,1.72.358l1.075.215c.215.072.43.072.645.143a8.664,8.664,0,0,1,1.29.358c.143,0,.215.072.358.072l1.5.43h.143a64.2,64.2,0,0,1,8.1,2.938,7.036,7.036,0,0,0,9.172-3.726c.072-.143.072-.287.143-.43A80.423,80.423,0,0,0,79.642,10Z" transform="translate(-0.028 -2.834)" fill="url(#linear-gradient-5)"/>
  <path id="Tracé_96" data-name="Tracé 96" d="M79.613,0A79.667,79.667,0,0,0,0,79.613c0,2.365.143,4.73.287,7.094A79.609,79.609,0,0,1,77.894,14.26h2.58a65.424,65.424,0,0,1,64.493,65.353h0V82.05a7.786,7.786,0,0,1-.072,1.29,1.984,1.984,0,0,1-.072.645c0,.43-.072.86-.072,1.218,0,.215-.072.43-.072.645-.072.43-.072.86-.143,1.218,0,.215-.072.43-.072.573a7.9,7.9,0,0,0-.143,1.29c0,.215-.072.358-.072.573-.072.43-.143.932-.215,1.362,0,.143-.072.287-.072.43a14.676,14.676,0,0,1-.358,1.72l-.215,1.075c-.072.215-.072.43-.143.645a8.662,8.662,0,0,1-.358,1.29c0,.143-.072.215-.072.358l-.43,1.5v.143a64.2,64.2,0,0,1-2.938,8.1,7.036,7.036,0,0,0,3.726,9.172,7.148,7.148,0,0,0,9.387-3.655A79.6,79.6,0,0,0,79.613,0Z" fill="url(#linear-gradient-6)"/>
  <path id="Tracé_97" data-name="Tracé 97" d="M134.912,95.456a39.556,39.556,0,1,0-79.112,0,35.127,35.127,0,0,0,.717,7.309,39.435,39.435,0,0,1,77.679,0A36.109,36.109,0,0,0,134.912,95.456Z" transform="translate(-15.814 -15.843)" fill="url(#linear-gradient-7)"/>
  <path id="Tracé_98" data-name="Tracé 98" d="M109.683,19.8c-1.218,0-2.365,0-3.583.072.645,0,1.29-.072,1.935-.072h2.58a65.424,65.424,0,0,1,64.493,65.353h0V87.59a7.787,7.787,0,0,1-.072,1.29,1.984,1.984,0,0,1-.072.645c0,.43-.072.86-.072,1.218,0,.215-.072.43-.072.645-.072.43-.072.86-.143,1.218,0,.215-.072.43-.072.573a7.9,7.9,0,0,0-.143,1.29c0,.215-.072.358-.072.573-.072.43-.143.932-.215,1.362,0,.143-.072.287-.072.43a14.681,14.681,0,0,1-.358,1.72l-.215,1.075c-.072.215-.072.43-.143.645a8.664,8.664,0,0,1-.358,1.29c0,.143-.072.215-.072.358l-.43,1.5v.143a64.2,64.2,0,0,1-2.938,8.1,7.036,7.036,0,0,0,3.726,9.172,7.148,7.148,0,0,0,9.387-3.655A78.529,78.529,0,0,0,189.3,89.309,80.513,80.513,0,0,0,109.683,19.8Z" transform="translate(-30.07 -5.611)" fill="url(#linear-gradient-8)"/>
  <path id="Tracé_99" data-name="Tracé 99" d="M189.076,62.9a89.392,89.392,0,0,0-72.376-43,80.243,80.243,0,0,1,75.457,69.438l.072-4.156A79.382,79.382,0,0,0,189.076,62.9Z" transform="translate(-33.074 -5.64)" fill="url(#linear-gradient-9)"/>
</svg>
