<svg id="Groupe_86" data-name="Groupe 86" xmlns="http://www.w3.org/2000/svg" xmlns:xlink="http://www.w3.org/1999/xlink" width="175.8" height="183.2" viewBox="0 0 175.8 183.2">
  <defs>
    <linearGradient id="linear-gradient" x1="-23.257" y1="13.364" x2="-23.25" y2="13.364" gradientUnits="objectBoundingBox">
      <stop offset="0" stop-color="#4facfe"/>
      <stop offset="1" stop-color="#00f2fe"/>
    </linearGradient>
    <linearGradient id="linear-gradient-2" x1="-23.215" y1="13.925" x2="-23.208" y2="13.925" gradientUnits="objectBoundingBox">
      <stop offset="0" stop-color="#5b4ba2"/>
      <stop offset="1" stop-color="#667eea"/>
    </linearGradient>
    <linearGradient id="linear-gradient-3" x1="-49156.199" y1="-14604.718" x2="-42884.254" y2="-14604.718" xlink:href="#linear-gradient"/>
    <linearGradient id="linear-gradient-4" x1="-20.472" y1="25.49" x2="-20.461" y2="25.49" xlink:href="#linear-gradient"/>
    <linearGradient id="linear-gradient-5" y1="0.5" x2="1" y2="0.5" gradientUnits="objectBoundingBox">
      <stop offset="0" stop-color="#00f2fe"/>
      <stop offset="1" stop-color="#4facfe"/>
    </linearGradient>
  </defs>
  <path id="Tracé_20_2_" d="M101,136.3l.2-.3C101.2,136.1,101.1,136.2,101,136.3Z" fill="none"/>
  <path id="Tracé_21_2_" d="M39.2,36.4c11.6,20,6.7,76.5,46.4,84.9,15.6,3.3,27.2-10,27.2-10S92.8,127.1,74,107,57.5,53.3,45.9,33.4C28.7,3.7.1,0,.1,0S22.1,6.7,39.2,36.4Z" fill="url(#linear-gradient)"/>
  <path id="Tracé_22_2_" d="M45.9,33.4c11.6,20,9.4,53.5,28.2,73.6s38.8,4.3,38.8,4.3h0c-16.6-4-24.9-11.3-29.1-17-8.3-11.2-5-20.1-12.8-41.9-2.8-7.8-7.1-19.8-15.1-29.3C40.2,4.5,15,.7,0,0,0,0,28.7,3.7,45.9,33.4Z" fill="url(#linear-gradient-2)"/>
  <path id="Tracé_23_2_" d="M101,136.3l.2-.3C101.2,136.1,101.1,136.2,101,136.3Z" fill="url(#linear-gradient-3)"/>
  <path id="Tracé_24_2_" d="M45.4,123.4c.2.4.5.8.7,1.2,12.5,21.5,32.8,31.5,43.7,35.8L79,183.2,175.7,171l-1-1.6c-17.6-14.6-49.9-36.5-95.1-43.7A178.291,178.291,0,0,0,45.4,123.4Zm55.7,12.9h0c.1-.1.1-.2.2-.3Z" fill="url(#linear-gradient-4)"/>
  <path id="Tracé_75" data-name="Tracé 75" d="M175.8,171l-1-1.6L123.5,88.8l-10.6,22.6s-11.6,13.4-27.2,10c-39.7-8.5-34.8-65-46.4-84.9C22,6.7,0,.1,0,.1,24.9,13.7,32.9,28,35.7,38.6c4.5,17.6-4.9,28,.1,55.9a88.294,88.294,0,0,0,9.6,28.8c.2.4.5.8.7,1.2C58.6,146,78.9,156,89.8,160.3L79,183.2Z" fill="url(#linear-gradient-5)"/>
</svg>
