<svg id="Groupe_26" data-name="Groupe 26" xmlns="http://www.w3.org/2000/svg" width="66.761" height="66.761" viewBox="0 0 66.761 66.761">
  <path id="Tracé_31" data-name="Tracé 31" d="M242.781,0h0a33.381,33.381,0,0,0,0,66.761h0a33.381,33.381,0,1,0,0-66.761Zm18.225,40.912a13.608,13.608,0,0,1-.837,4.463,9.61,9.61,0,0,1-5.393,5.393,13.607,13.607,0,0,1-4.463.837c-1.953.093-2.6.093-7.532.093s-5.579,0-7.532-.093a13.607,13.607,0,0,1-4.463-.837,9.61,9.61,0,0,1-5.393-5.393,13.606,13.606,0,0,1-.837-4.463c-.093-1.953-.093-2.6-.093-7.532s0-5.579.093-7.532a13.607,13.607,0,0,1,.837-4.463,9.61,9.61,0,0,1,5.393-5.393,13.607,13.607,0,0,1,4.463-.837c1.953-.093,2.6-.093,7.532-.093s5.579,0,7.532.093a13.607,13.607,0,0,1,4.463.837,9.61,9.61,0,0,1,5.393,5.393,13.608,13.608,0,0,1,.837,4.463c.093,1.953.093,2.6.093,7.532S261.1,38.959,261.005,40.912ZM257.1,22.595a6.544,6.544,0,0,0-1.395-2.139,5.7,5.7,0,0,0-2.139-1.395,9.5,9.5,0,0,0-3.44-.651c-1.953-.093-2.51-.093-7.346-.093-4.928,0-5.486,0-7.346.093a10.013,10.013,0,0,0-3.44.651,6.545,6.545,0,0,0-2.139,1.395,5.7,5.7,0,0,0-1.395,2.139,9.5,9.5,0,0,0-.651,3.44c-.093,1.953-.093,2.511-.093,7.346,0,4.928,0,5.486.093,7.346a10.014,10.014,0,0,0,.651,3.44,6.545,6.545,0,0,0,1.395,2.139,5.7,5.7,0,0,0,2.139,1.395,9.5,9.5,0,0,0,3.44.651c1.953.093,2.51.093,7.346.093s5.486,0,7.346-.093a10.014,10.014,0,0,0,3.44-.651,6.545,6.545,0,0,0,2.139-1.395,5.7,5.7,0,0,0,1.395-2.139,9.5,9.5,0,0,0,.651-3.44c.093-1.953.093-2.511.093-7.346,0-4.928,0-5.486-.093-7.346A12.183,12.183,0,0,0,257.1,22.595ZM242.781,42.772a9.391,9.391,0,1,1,9.391-9.391A9.365,9.365,0,0,1,242.781,42.772Zm9.763-17.016a2.232,2.232,0,1,1,2.232-2.232A2.2,2.2,0,0,1,252.544,25.756Zm-3.626,7.625a6.137,6.137,0,1,1-6.137-6.137A6.131,6.131,0,0,1,248.917,33.381Z" transform="translate(-209.4)" fill="#fff"/>
</svg>
