<svg id="Groupe_23" data-name="Groupe 23" xmlns="http://www.w3.org/2000/svg" width="66.761" height="66.761" viewBox="0 0 66.761 66.761">
  <g id="Groupe_22" data-name="Groupe 22">
    <path id="Tracé_29" data-name="Tracé 29" d="M33.381,4.6h0a33.381,33.381,0,1,0,0,66.761h0a33.381,33.381,0,1,0,0-66.761ZM47.514,30.728c.465,10.228-7.16,21.665-20.735,21.665a20.893,20.893,0,0,1-11.158-3.254,14.878,14.878,0,0,0,10.786-2.975,7.325,7.325,0,0,1-6.788-5.021,7.645,7.645,0,0,0,3.254-.093A7.334,7.334,0,0,1,17.016,33.8a8.175,8.175,0,0,0,3.347.93,7.257,7.257,0,0,1-2.232-9.763,20.751,20.751,0,0,0,15.063,7.625,7.3,7.3,0,0,1,7.067-8.926,7.218,7.218,0,0,1,5.3,2.325,15.546,15.546,0,0,0,4.649-1.767,7.17,7.17,0,0,1-3.161,4A15.421,15.421,0,0,0,51.233,27.1,22.875,22.875,0,0,1,47.514,30.728Z" transform="translate(0 -4.6)" fill="#fff"/>
  </g>
</svg>
